<?xml version="1.0" encoding="iso-8859-1"?>
<!-- Uploaded to: SVG Repo, www.svgrepo.com, Generator: SVG Repo Mixer Tools -->
<svg fill="#000000" height="800px" width="800px" version="1.1" id="Layer_1" xmlns="http://www.w3.org/2000/svg" xmlns:xlink="http://www.w3.org/1999/xlink" 
	 viewBox="0 0 511.999 511.999" xml:space="preserve">
<g>
	<g>
		<path d="M391.674,162.481c-1.061-4.478-5.55-7.243-10.029-6.187c-4.477,1.061-7.247,5.551-6.186,10.029
			c2.192,9.25,3.303,18.807,3.303,28.407c0,50.578-30.65,95.389-77.052,113.941l-25.51-68.955
			c17.503-7.8,29.097-25.179,29.097-44.986c0-8.782-2.264-17.17-6.577-24.605l48.564-57.442
			c7.487,8.314,13.799,17.561,18.782,27.612c2.044,4.122,7.039,5.807,11.166,3.765c4.123-2.044,5.809-7.043,3.765-11.166
			c-7.157-14.438-16.692-27.439-28.339-38.642c-26.097-25.114-60.423-38.945-96.653-38.945
			c-76.879,0-139.424,62.545-139.424,139.424s62.545,139.424,139.424,139.424c14.84,0,29.431-2.319,43.359-6.889
			c57.459-18.772,96.065-72.034,96.065-132.535C395.426,183.838,394.164,172.988,391.674,162.481z M264.334,72.255
			c26.215,1.756,50.933,11.779,70.973,28.78l-47.433,56.104c-6.72-5.727-14.811-9.524-23.54-11.001V72.255z M281.733,174.681
			c4.512,5.765,6.896,12.698,6.896,20.05c0.001,15.219-10.327,28.28-25.117,31.762c-2.446,0.576-4.974,0.867-7.511,0.867
			c-17.992,0-32.629-14.637-32.629-32.629s14.637-32.629,32.629-32.629C266.118,162.103,275.495,166.684,281.733,174.681z
			 M256.002,317.491c-67.69,0-122.76-55.071-122.76-122.76c0-64.889,50.609-118.173,114.428-122.471v73.897
			c-23.224,3.973-40.961,24.234-40.961,48.574c0,27.18,22.112,49.293,49.293,49.293c1.322,0,2.641-0.072,3.956-0.177l25.887,69.972
			C276.144,316.248,266.144,317.491,256.002,317.491z"/>
	</g>
</g>
<g>
	<g>
		<path d="M471.246,24.766H40.754C18.283,24.766,0,43.049,0,65.52v59.227c0,4.602,3.731,8.332,8.332,8.332
			c4.601,0,8.332-3.731,8.332-8.332V65.52c0-13.284,10.807-24.09,24.09-24.09h430.492c13.284,0,24.09,10.807,24.09,24.09v284.411
			h-52.21c-4.602,0-8.332,3.731-8.332,8.332s3.731,8.332,8.332,8.332h52.21v15.273c0,13.284-10.807,24.09-24.09,24.09h-155.41
			H196.164H40.754c-13.284,0-24.09-10.807-24.09-24.09v-15.273h398.688c4.602,0,8.332-3.731,8.332-8.332s-3.731-8.332-8.332-8.332
			H16.664V152.522c0-4.602-3.731-8.332-8.332-8.332c-4.601,0-8.332,3.73-8.332,8.332V381.87c0,22.472,18.283,40.754,40.754,40.754
			H183.54l-20.494,47.945h-40.034c-4.602,0-8.332,3.731-8.332,8.332s3.731,8.332,8.332,8.332h265.975
			c4.602,0,8.332-3.731,8.332-8.332s-3.731-8.332-8.332-8.332h-40.034l-20.494-47.945h142.786c22.472,0,40.754-18.282,40.754-40.754
			V65.52C512,43.049,493.717,24.766,471.246,24.766z M330.83,470.568H181.17l14.238-33.31h121.185L330.83,470.568z"/>
	</g>
</g>
<g>
	<g>
		<path d="M262.924,379.679c-1.914-2.906-5.583-4.299-8.952-3.457c-3.517,0.879-6.116,4.048-6.291,7.67
			c-0.364,7.534,9.106,11.629,14.33,6.172C264.674,387.282,265.089,382.887,262.924,379.679z"/>
	</g>
</g>
</svg>